Coordinates
version=1
nRows=20
nColumns=34
inDegrees=yes

Units are S.I. units (second, meters, Newtons, ...)
If the header above contains a line with 'inDegrees', this indicates whether rotational values are in degrees (yes) or radians (no).

endheader
time	pelvis_tilt	pelvis_list	pelvis_rotation	pelvis_tx	pelvis_ty	pelvis_tz	hip_flexion_r	hip_adduction_r	hip_rotation_r	knee_angle_r	ankle_angle_r	subtalar_angle_r	mtp_angle_r	hip_flexion_l	hip_adduction_l	hip_rotation_l	knee_angle_l	ankle_angle_l	subtalar_angle_l	mtp_angle_l	lumbar_extension	lumbar_bending	lumbar_rotation	arm_flex_r	arm_add_r	arm_rot_r	elbow_flex_r	pro_sup_r	arm_flex_l	arm_add_l	arm_rot_l	elbow_flex_l	pro_sup_l
      1.11666670	     -2.27632053	      2.29158200	     -2.59253701	      1.79797311	      0.89051892	     -0.15578051	     -1.11734920	     -6.81015753	      0.53486431	      0.00000000	      2.21031335	    -18.96374439	      0.00000000	     -1.54902375	     -0.88391798	     -4.87148661	      0.00000000	      1.46990481	     -8.32808242	      0.00000000	     -8.95688598	     -0.22525340	     -1.63810175	     14.64003683	     -4.40879152	     38.84666128	     90.28308360	     94.87526493	     13.83553663	     -6.61926818	     33.56273194	     87.38648245	     92.69312138
      1.13333330	     -2.26920754	      2.30770921	     -2.58331239	      1.79794710	      0.89043631	     -0.15542344	     -1.11724827	     -6.80332121	      0.53505771	      0.00000000	      2.20238806	    -18.96794976	      0.00000000	     -1.53242420	     -0.88814184	     -4.87652879	      0.00000000	      1.46684761	     -8.32604124	      0.00000000	     -8.95046273	     -0.22092690	     -1.63341982	     14.63877224	     -4.40812730	     38.84399050	     90.28369573	     94.87268850	     13.83680970	     -6.61933813	     33.56634285	     87.38576848	     92.69107460
      1.15000000	     -2.26308348	      2.31692880	     -2.58083690	      1.79780317	      0.89064552	     -0.15505800	     -1.10739250	     -6.79443086	      0.53183567	      0.00000000	      2.19564874	    -18.97335024	      0.00000000	     -1.52228988	     -0.88928768	     -4.87941066	      0.00000000	      1.46342250	     -8.32303969	      0.00000000	     -8.94701019	     -0.21686177	     -1.63019268	     14.63710628	     -4.40722108	     38.84163399	     90.28424107	     94.87037686	     13.83920143	     -6.62032801	     33.56871735	     87.38432412	     92.68919636
      1.16666670	     -2.25892680	      2.32779840	     -2.58079218	      1.79751092	      0.89119954	     -0.15449577	     -1.09116164	     -6.78056547	      0.52664917	      0.00000000	      2.18934962	    -18.97954034	      0.00000000	     -1.51564944	     -0.89163087	     -4.88154495	      0.00000000	      1.45971262	     -8.31949044	      0.00000000	     -8.94560697	     -0.21253221	     -1.62738828	     14.63507565	     -4.40630633	     38.83933271	     90.28482021	     94.86810511	     13.84261074	     -6.62292381	     33.56980057	     87.38177585	     92.68728575
      1.18333330	     -2.34163964	      2.27739419	     -2.66015612	      1.79708805	      0.89180259	     -0.15368321	     -0.93194953	     -6.67463702	      0.44267911	      0.00000000	      2.09842529	    -19.07240550	      0.00000000	     -1.42051907	     -0.98405225	     -4.90807573	      0.00000000	      1.38393314	     -8.25138835	      0.00000000	     -8.98091206	     -0.19941265	     -1.57155248	     14.60881339	     -4.37715697	     38.80748621	     90.29143331	     94.83509666	     13.90631250	     -6.71213963	     33.55950475	     87.31629365	     92.65789777
      1.20000000	     -2.33799286	      2.29698592	     -2.64946367	      1.79707324	      0.89183364	     -0.15327736	     -0.92121432	     -6.66208018	      0.44436399	      0.00000000	      2.09466053	    -19.07363392	      0.00000000	     -1.42487373	     -0.98833819	     -4.91129762	      0.00000000	      1.38155758	     -8.25007957	      0.00000000	     -8.97691074	     -0.19478016	     -1.57081328	     14.60802126	     -4.37745816	     38.80593683	     90.29221596	     94.83384344	     13.90775241	     -6.71213927	     33.56013230	     87.31455644	     92.65683726
      1.21666670	     -2.33226254	      2.30498826	     -2.64848067	      1.79729158	      0.89144442	     -0.15339696	     -0.91665990	     -6.65768940	      0.44475243	      0.00000000	      2.09385962	    -19.07391176	      0.00000000	     -1.42458793	     -0.99248227	     -4.91181533	      0.00000000	      1.38059887	     -8.24944075	      0.00000000	     -8.97674061	     -0.19430000	     -1.57080280	     14.60783225	     -4.37747451	     38.80556202	     90.29235498	     94.83355381	     13.90839702	     -6.71251970	     33.56004238	     87.31389136	     92.65657662
      1.23333330	     -2.34571929	      2.31836362	     -2.64904712	      1.79771896	      0.89090360	     -0.15348097	     -0.90733066	     -6.65192690	      0.44638432	      0.00000000	      2.08935964	    -19.07775011	      0.00000000	     -1.43824243	     -1.01442045	     -4.91510547	      0.00000000	      1.37163166	     -8.24341178	      0.00000000	     -8.97218775	     -0.19288354	     -1.57330562	     14.60615089	     -4.37732474	     38.80258074	     90.29484960	     94.83130557	     13.91592455	     -6.71542738	     33.55833952	     87.30895628	     92.65446532
      1.25000000	     -2.34541301	      2.32032949	     -2.65066410	      1.79774956	      0.89039958	     -0.15349718	     -0.90653601	     -6.65137730	      0.44658882	      0.00000000	      2.08884879	    -19.07841046	      0.00000000	     -1.43925568	     -1.01849059	     -4.91543092	      0.00000000	      1.37005805	     -8.24224131	      0.00000000	     -8.97117622	     -0.19282606	     -1.57423484	     14.60588761	     -4.37743046	     38.80203598	     90.29537716	     94.83094639	     13.91747877	     -6.71573023	     33.55798772	     87.30818307	     92.65411938
      1.26666670	     -2.36858026	      2.28141149	     -2.75972282	      1.79776935	      0.88981199	     -0.15310943	     -0.85964594	     -6.60168019	      0.46511154	      0.00000000	      2.07904460	    -19.11957428	      0.00000000	     -1.46090611	     -1.08607654	     -4.92625203	      0.00000000	      1.30053997	     -8.18566106	      0.00000000	     -8.86875703	     -0.20632030	     -1.63763601	     14.61169108	     -4.37743732	     38.76790641	     90.34089402	     94.81225043	     14.02154855	     -6.72118492	     33.53552642	     87.28074456	     92.63575899
      1.28333330	     -2.37312697	      2.28287935	     -2.75773241	      1.79761994	      0.88967519	     -0.15298151	     -0.86025870	     -6.60112164	      0.46625324	      0.00000000	      2.07882220	    -19.11982982	      0.00000000	     -1.46305744	     -1.08701954	     -4.92703310	      0.00000000	      1.29993032	     -8.18521453	      0.00000000	     -8.86791390	     -0.20586354	     -1.63786294	     14.61227400	     -4.37754839	     38.76724291	     90.34160220	     94.81192872	     14.02240883	     -6.72127698	     33.53532566	     87.28005538	     92.63544951
      1.30000000	     -2.47237775	      2.24898433	     -2.72448622	      1.79740080	      0.88936966	     -0.15267300	     -0.75582233	     -6.52733996	      0.67774922	      0.00000000	      2.07600228	    -19.15949452	      0.00000000	     -1.34403482	     -1.16132109	     -4.98649292	      0.00000000	      1.23839693	     -8.10697671	      0.00000000	     -8.69951453	     -0.23253071	     -1.73158917	     14.75864087	     -4.36569541	     38.64548056	     90.48810512	     94.76305883	     14.23214872	     -6.72805193	     33.48712223	     87.18665147	     92.58680958
      1.31666670	     -2.47509205	      2.24845525	     -2.72533666	      1.79728902	      0.88946882	     -0.15246926	     -0.75479911	     -6.52645085	      0.67812380	      0.00000000	      2.07617764	    -19.16013239	      0.00000000	     -1.34474017	     -1.15874015	     -4.98638765	      0.00000000	      1.23850396	     -8.10660970	      0.00000000	     -8.69956352	     -0.23157089	     -1.73222783	     14.75827819	     -4.36605217	     38.64508557	     90.48861752	     94.76276875	     14.23202784	     -6.72768613	     33.48740068	     87.18585095	     92.58652400
      1.33333330	     -2.54451967	      2.25308223	     -2.84805115	      1.79695241	      0.88966018	     -0.15183280	     -0.61743680	     -6.49838772	      0.75141691	      0.00000000	      2.09926000	    -19.20165551	      0.00000000	     -1.27944518	     -1.17081273	     -4.97988338	      0.00000000	      1.26737221	     -8.08349876	      0.00000000	     -8.70387096	     -0.22168203	     -1.78658816	     14.78054379	     -4.35833755	     38.60122153	     90.55584302	     94.73738738	     14.27093642	     -6.70470833	     33.49182021	     87.11783694	     92.55990711
      1.35000000	     -3.25025312	      2.28134297	     -2.92582661	      1.79707264	      0.88872812	     -0.15145658	      0.20122798	     -6.46474683	      1.43503362	      0.00000000	      1.55595384	    -20.18642802	      0.00000000	     -0.50018702	     -1.18899530	     -5.28988996	      0.00000000	      1.47334032	     -7.67192564	      0.00000000	     -7.71230118	     -0.28588002	     -1.11181920	     14.17952275	     -4.56663962	     38.00612120	     91.30434887	     93.96720121	     14.47551351	     -6.27478598	     33.76739568	     86.09713321	     91.68053846
      1.36666670	     -3.24570083	      2.28363938	     -2.92683725	      1.79718678	      0.88859495	     -0.15145382	      0.20207022	     -6.46266902	      1.43576655	      0.00000000	      1.55616523	    -20.18633125	      0.00000000	     -0.49748601	     -1.18962022	     -5.29002278	      0.00000000	      1.47371578	     -7.67220770	      0.00000000	     -7.71243780	     -0.28566994	     -1.11312645	     14.17965691	     -4.56670524	     38.00571085	     91.30454468	     93.96696463	     14.47645162	     -6.27436303	     33.76771312	     86.09718062	     91.68027417
      1.38333330	     -3.25183243	      2.25786067	     -3.00303899	      1.79736229	      0.88847363	     -0.15129772	      0.22645433	     -6.42789937	      1.52251734	      0.00000000	      1.58308884	    -20.17145568	      0.00000000	     -0.49855011	     -1.22625527	     -5.30316389	      0.00000000	      1.51064815	     -7.69918606	      0.00000000	     -7.67433998	     -0.28128084	     -1.24987322	     14.22455711	     -4.55538443	     37.96253276	     91.34795548	     93.94736737	     14.60552443	     -6.21726014	     33.78820356	     86.12309921	     91.65776675
      1.40000000	     -3.28134693	      2.23009252	     -2.96506218	      1.79746225	      0.88851120	     -0.15113737	      0.23165689	     -6.39008546	      1.68471263	      0.00000000	      1.62896079	    -20.13487765	      0.00000000	     -0.44757917	     -1.27500655	     -5.30820513	      0.00000000	      1.56754825	     -7.72999845	      0.00000000	     -7.62303784	     -0.24961066	     -1.31544204	     14.32697474	     -4.51152940	     37.90663167	     91.42896482	     93.91651041	     14.72280203	     -6.19488323	     33.81610802	     86.15931783	     91.62029774
      1.41666670	     -3.29619539	      2.22312137	     -3.06568148	      1.79756730	      0.88829586	     -0.15093173	      0.26501273	     -6.38499564	      1.71696099	      0.00000000	      1.65392653	    -20.13391441	      0.00000000	     -0.46063706	     -1.29682384	     -5.27425408	      0.00000000	      1.58032881	     -7.72123367	      0.00000000	     -7.60306147	     -0.23040947	     -1.35890613	     14.33634959	     -4.51605350	     37.88990678	     91.45484479	     93.90499093	     14.75570836	     -6.17756864	     33.83533845	     86.17953426	     91.60598566
      1.43333330	     -3.32455357	      2.18972767	     -3.14487299	      1.79762230	      0.88774297	     -0.15075565	      0.29605859	     -6.34603150	      1.86571427	      0.00000000	      1.70349305	    -20.09567123	      0.00000000	     -0.46215069	     -1.35178214	     -5.20445879	      0.00000000	      1.63283491	     -7.70607022	      0.00000000	     -7.49235380	     -0.19927812	     -1.43028124	     14.39303938	     -4.51149129	     37.85135149	     91.52869161	     93.88086670	     14.83945186	     -6.11071409	     33.88045326	     86.25905730	     91.57562362
